<?xml version="1.0" encoding="utf-8"?>
<!-- Generator: Adobe Illustrator 24.1.0, SVG Export Plug-In . SVG Version: 6.00 Build 0)  -->
<svg version="1.1" id="Capa_1" xmlns="http://www.w3.org/2000/svg" xmlns:xlink="http://www.w3.org/1999/xlink" x="0px" y="0px"
	 viewBox="0 0 71 74" style="enable-background:new 0 0 71 74;" xml:space="preserve">
<style type="text/css">
	.st0{fill:#62637C;}
	.st1{fill:#FF6612;}
	.st2{fill:#62637C;stroke:#62637C;stroke-width:0.9758;stroke-miterlimit:10;}
	.st3{fill:#62637C;stroke:#62637C;stroke-miterlimit:10;}
	.st4{clip-path:url(#SVGID_2_);fill:#62637C;stroke:#62637C;stroke-miterlimit:10;}
	.st5{clip-path:url(#SVGID_2_);fill:#62637C;}
	.st6{clip-path:url(#SVGID_2_);fill:#FF6612;}
	.st7{clip-path:url(#SVGID_4_);}
	.st8{fill:#FFFFFF;}
</style>
<g>
	<defs>
		<rect id="SVGID_3_" x="0.1" y="6.1" width="70.7" height="61.9"/>
	</defs>
	<clipPath id="SVGID_2_">
		<use xlink:href="#SVGID_3_"  style="overflow:visible;"/>
	</clipPath>
	<g style="clip-path:url(#SVGID_2_);">
		<ellipse class="st1" cx="57.8" cy="54.9" rx="11.8" ry="11.8"/>
		<path class="st0" d="M0.1,58.1c0.2-0.7,0.3-1.5,0.6-2.1c0.7-1.6,2-2.7,3.4-3.6c1.8-1.1,3.7-1.8,5.6-2.5c2.4-0.9,4.7-1.7,7-2.7
			c0.9-0.4,1.8-1,2.6-1.6c1.1-0.8,1.6-2,1.5-3.3c0-0.6,0.1-1.2,0-1.7c-0.2-0.5-0.6-0.9-1-1.4c-1.3-1.8-2.3-3.7-2.9-5.8
			c0-0.1-0.1-0.3-0.2-0.3c-1.5-1.1-2.2-2.7-2.6-4.5c-0.3-1.8-0.1-3.5,0.8-5.1c0.1-0.1,0.1-0.3,0-0.4c-0.2-2.5-0.2-5,0.4-7.4
			c1-3.8,3.4-6.4,6.8-8.2c2-1,4-1.5,6.2-1.5c2.8,0,5.3,0.8,7.6,2.4c3.5,2.3,5.3,5.6,5.8,9.7c0.2,1.7,0.1,3.4,0,5.1
			c0,0.1,0,0.3,0.1,0.4c1,1.8,1.1,3.6,0.7,5.5c-0.4,1.6-1.1,3-2.5,4c-0.1,0.1-0.2,0.2-0.2,0.3c-0.7,2.5-2,4.7-3.7,6.7
			c-0.2,0.2-0.3,0.4-0.2,0.7c0,0.5,0,0.9,0,1.4c0,0.6,0.1,1.1,0.5,1.5c0.7,0.9,1.5,1.8,2.4,2.4c1.3,0.9,2.6,1.7,3.8,2.6
			c0.1,0.1,0.3,0.2,0.4,0.2c0,0.1,0,0.1,0,0.1c-0.7,1.5-0.9,3.1-1,4.7c-0.1,1.6-0.1,3.2,0.3,4.8c0.2,0.9,0.5,1.8,1.1,2.5
			c0.4,0.5,0.7,1,1,1.5c-0.1,0-0.2,0-0.3,0c-4.6,0-9.2,0-13.7,0c-10,0-20,0-30,0c-0.2,0-0.3,0-0.5,0C0.1,61.2,0.1,59.7,0.1,58.1z
			 M39.9,60c0-0.1,0-0.1,0-0.2c-0.8-3.1-0.7-6.1-0.1-9.2c0-0.2,0-0.3-0.2-0.4c-0.5-0.3-1.1-0.7-1.6-1.1c-1.4-1-2.7-2.1-3.7-3.5
			c-0.7-1-1.1-2.1-1.1-3.3c0-0.8,0-1.6,0-2.4c0-0.3,0.1-0.5,0.3-0.7c2-2.1,3.4-4.6,4-7.4c0.1-0.3,0.2-0.5,0.5-0.6
			c0.7-0.2,1.1-0.7,1.4-1.4c0.5-0.9,0.7-1.9,0.6-3c0-0.7-0.2-1.4-0.7-2c-0.4-0.4-0.5-0.8-0.4-1.4c0.3-1.8,0.3-3.6,0-5.4
			c-0.3-1.8-0.8-3.5-1.9-4.9c-2.8-3.6-8-5.4-12.8-3.5c-3.7,1.5-6,4.2-6.5,8.3c-0.3,2-0.2,4,0.1,6c0,0.2,0,0.4-0.2,0.6
			C17.3,25,17,25.7,17,26.4c0,0.6,0,1.3,0.1,1.9c0.3,1.3,0.8,2.4,2.1,2.9c0.1,0,0.2,0.2,0.2,0.4c0.6,2.5,1.7,4.6,3.3,6.6
			c0.3,0.4,0.8,0.8,1,1.3c0.2,0.5,0.1,1.1,0,1.7c0,0.9,0,1.8-0.2,2.7c-0.3,1.8-1.4,3.1-2.9,4.2c-1.6,1.2-3.4,2-5.2,2.6
			c-2.1,0.8-4.3,1.5-6.4,2.3c-1.5,0.6-3,1.2-4.3,2.2C3.3,56.5,2.7,58,3,60C15.3,60,27.6,60,39.9,60z"/>
		<path class="st0" d="M70.9,55.3c-0.1,0.7-0.2,1.4-0.4,2.2c-1.2,5.5-6.1,9.8-11.7,10.4C51.7,68.6,45.4,64,44,57.1
			c-1.3-6.4,2.3-12.9,8.4-15.2c7.9-3.1,16.7,1.7,18.3,10c0.1,0.5,0.2,1.1,0.2,1.6C70.9,54.1,70.9,54.7,70.9,55.3z M46.5,54.4
			c0,5.9,4.8,10.8,10.8,10.8c5.9,0,10.8-4.8,10.8-10.7c0-5.9-4.8-10.7-10.8-10.8C51.4,43.7,46.5,48.5,46.5,54.4z"/>
		<path class="st0" d="M28.8,44.9c0.7,3.5,1.4,7,2.2,10.4c0,0.1,0,0.2-0.1,0.3c-0.7,0.8-1.4,1.5-2.1,2.3c-0.2-0.2-0.3-0.4-0.5-0.5
			c-0.5-0.6-1-1.1-1.5-1.7c-0.1-0.1-0.2-0.3-0.1-0.5c0.6-3.2,1.3-6.4,2-9.6C28.7,45.4,28.7,45.2,28.8,44.9
			C28.8,44.9,28.8,44.9,28.8,44.9z"/>
		<path class="st8" d="M56,56.8c0.1-0.1,0.1-0.2,0.2-0.2c1.7-1.9,3.4-3.8,5.1-5.6c0.3-0.3,0.6-0.4,0.8-0.1c0.2,0.2,0.2,0.6-0.1,0.9
			c-1.8,2-3.7,4.1-5.5,6.1c-0.3,0.4-0.6,0.4-0.9,0c-1-1.1-2-2.2-3-3.3c-0.1-0.1-0.1-0.1-0.2-0.2c-0.1-0.2-0.1-0.5,0-0.7
			c0.2-0.2,0.4-0.2,0.6-0.1c0.1,0.1,0.1,0.1,0.2,0.2C54.1,54.7,55,55.7,56,56.8z"/>
	</g>
</g>
</svg>
