<?xml version="1.0" encoding="utf-8"?>
<!-- Generator: Adobe Illustrator 24.1.0, SVG Export Plug-In . SVG Version: 6.00 Build 0)  -->
<svg version="1.1" id="Capa_1" xmlns="http://www.w3.org/2000/svg" xmlns:xlink="http://www.w3.org/1999/xlink" x="0px" y="0px"
	 viewBox="0 0 71 74" style="enable-background:new 0 0 71 74;" xml:space="preserve">
<style type="text/css">
	.st0{fill:#62637C;}
	.st1{fill:#FF6612;}
	.st2{clip-path:url(#SVGID_2_);fill:#62637C;stroke:#62637C;stroke-miterlimit:10;}
	.st3{clip-path:url(#SVGID_2_);fill:#62637C;}
	.st4{clip-path:url(#SVGID_2_);fill:#FF6612;}
</style>
<g>
	<path class="st1" d="M20.7,29.4c-0.1,0.4,0,0.8,0.3,1.1l7,6l-2.2,9c-0.1,0.4,0.1,0.8,0.4,1.1c0.3,0.3,0.8,0.3,1.2,0l7.9-4.9
		l7.9,4.9c0.2,0.1,0.4,0.2,0.6,0.2c0.2,0,0.4-0.1,0.6-0.2c0.3-0.3,0.5-0.7,0.4-1.1l-2.2-9l7-6c0.3-0.3,0.5-0.7,0.3-1.1
		s-0.5-0.7-0.9-0.7L39.9,28l-3.5-8.6c-0.2-0.4-0.5-0.7-1-0.7s-0.8,0.3-1,0.7L30.9,28l-9.2,0.7C21.2,28.7,20.9,29,20.7,29.4z"/>
	<path class="st0" d="M65.1,38.8c1.1,0,2.6-0.6,3.9-1.8c1.9-1.7,2.2-4.5,2.2-4.6c0-0.6-0.4-1.1-1-1.1c-0.1,0-2.9-0.2-4.8,1.5
		c-0.2,0.2-0.5,0.4-0.7,0.6c-0.1-1.9-0.3-3.7-0.8-5.5c0.5,0,1-0.2,1.7-0.8c0.7-0.6,1.4-1.5,2-2.6c1.2-2.3,0.3-4.9,0.3-5.1
		c-0.2-0.6-0.8-0.9-1.3-0.7c-0.1,0-2.8,0.9-3.9,3.2c-0.1,0.3-0.3,0.6-0.4,0.8c-0.8-1.7-1.7-3.3-2.8-4.8c1.1-0.6,2-2.3,2.2-4.4
		c0.2-2.5-1.6-4.7-1.6-4.8c-0.4-0.4-1-0.5-1.5-0.1c-0.1,0.1-2.2,1.9-2.5,4.4c-0.1,0.9,0,1.7,0.1,2.5c-0.7-0.2-1.5-0.2-2.4-0.2
		c-2.5,0.1-4.4,2.2-4.5,2.3c-0.4,0.4-0.4,1.1,0.1,1.5c0.1,0.1,2,1.8,4.5,1.8c0.1,0,0.2,0,0.3,0c1.2-0.1,2.3-0.3,3.1-0.8
		c0.3-0.2,0.6-0.4,0.8-0.5c0.8,1.2,1.6,2.5,2.2,3.8c-0.2-0.1-0.3-0.1-0.5-0.2c-2.4-0.8-4.9,0.4-5,0.4c-0.5,0.3-0.7,0.9-0.5,1.4
		c0.1,0.1,1.3,2.6,3.7,3.5c0.9,0.3,1.9,0.5,2.7,0.5c0.2,0,0.3,0,0.5,0c0.4,0,0.7-0.1,1-0.2c0.3,1.4,0.5,2.9,0.6,4.4
		c-0.1-0.1-0.3-0.3-0.4-0.4c-1.9-1.7-4.7-1.5-4.8-1.5c-0.6,0-1,0.5-1,1.1c0,0.1,0.2,2.9,2.1,4.6c0.9,0.8,1.9,1.4,2.8,1.6
		c0.4,0.1,0.7,0.2,1,0.2c-0.3,1.6-0.7,3.2-1.2,4.7c-0.1-0.4-0.3-0.8-0.5-1.1c-1.3-2.5-4.2-3.5-4.4-3.6c-0.6-0.2-1.1,0.1-1.3,0.7
		c0,0.1-1,3.1,0.3,5.6c0.6,1.2,1.4,2.2,2.2,2.9c0.4,0.3,0.8,0.6,1.1,0.7c-1,1.5-2.2,3-3.5,4.3c0.1-0.5,0.1-1,0.1-1.6
		c0-3-2.4-5.4-2.5-5.5c-0.4-0.4-1.1-0.4-1.5,0c-0.1,0.1-2.4,2.5-2.4,5.6c0,2.6,0.8,4.3,1.7,5.2c-0.9,0.5-1.7,1-2.7,1.5
		c-0.5-1.2-1.6-2-2.9-2h-8.9c-0.6,0-1.1,0.5-1.1,1.1c0,0.6,0.5,1.1,1.1,1.1h8.9c0.6,0,1.1,0.5,1.1,1.1v3c0,0.6-0.5,1.1-1.1,1.1H25.9
		c-0.6,0-1.1-0.5-1.1-1.1v-3c0-0.6,0.5-1.1,1.1-1.1h5.8c0.6,0,1.1-0.5,1.1-1.1c0-0.6-0.5-1.1-1.1-1.1h-5.8c-1.3,0-2.4,0.8-2.9,1.9
		c-0.8-0.4-1.6-0.9-2.4-1.4c0.3-0.3,0.7-0.7,1-1.4c0.5-1,0.8-2.4,0.8-3.8c0-3-2.3-5.5-2.4-5.6c-0.4-0.4-1.1-0.4-1.5,0
		c-0.1,0.1-2.5,2.4-2.5,5.5c0,0.5,0,1.1,0.1,1.6c-1.3-1.3-2.5-2.7-3.4-4.3c0.3-0.1,0.7-0.3,1.1-0.7c0.8-0.7,1.6-1.7,2.2-2.9
		c1.3-2.5,0.3-5.5,0.3-5.6c-0.2-0.5-0.8-0.8-1.3-0.7c-0.1,0-3.1,1-4.4,3.6c-0.2,0.4-0.3,0.7-0.5,1.1c-0.6-1.5-1-3.1-1.2-4.7
		c1.1,0,2.5-0.7,3.8-1.8c1.9-1.7,2.1-4.5,2.1-4.6c0-0.6-0.4-1.1-1-1.1c-0.1,0-2.9-0.2-4.8,1.5c-0.1,0.1-0.3,0.3-0.4,0.4
		c0.1-1.5,0.3-3,0.6-4.4c0.3,0.1,0.6,0.2,1,0.2c0.2,0,0.3,0,0.5,0c0.8,0,1.8-0.2,2.7-0.5c2.4-0.8,3.7-3.3,3.7-3.5
		c0.3-0.5,0-1.1-0.5-1.4c-0.1-0.1-2.6-1.3-5-0.4c-0.2,0.1-0.4,0.1-0.5,0.2c0.6-1.3,1.3-2.6,2.2-3.8c0.2,0.2,0.5,0.4,0.8,0.5
		c0.8,0.4,2,0.7,3.1,0.8c0.1,0,0.2,0,0.3,0c2.4,0,4.4-1.7,4.5-1.8c0.4-0.4,0.5-1,0.1-1.5c-0.1-0.1-2-2.2-4.5-2.3
		c-0.8,0-1.7,0-2.4,0.2c0.1-0.7,0.2-1.6,0.1-2.5c-0.2-2.5-2.4-4.4-2.5-4.4c-0.4-0.4-1.1-0.3-1.5,0.1c-0.1,0.1-1.9,2.2-1.6,4.8
		c0.1,1.2,0.4,2.3,0.9,3.1c0.4,0.7,0.9,1.1,1.3,1.3c-1.1,1.5-2,3.1-2.8,4.8c-0.1-0.3-0.2-0.6-0.4-0.8c-1.2-2.3-3.8-3.1-3.9-3.2
		c-0.3-0.1-0.6-0.1-0.8,0.1c-0.2,0.1-0.4,0.4-0.5,0.6c0,0.1-0.3,0.9-0.3,2.1c0,0.6,0.4,1.1,1,1.1c0.6,0,1.1-0.4,1.1-1
		c0-0.1,0-0.2,0-0.3c0.6,0.3,1.2,0.9,1.6,1.6c0.7,1.4,0.7,2.5,0.6,2.8c-0.2,0-0.8-0.3-1.5-1.6c-0.3-0.5-0.9-0.7-1.4-0.4
		c-0.5,0.3-0.7,0.9-0.4,1.4c0.6,1,1.2,1.7,1.9,2.2c0.4,0.3,0.9,0.4,1.3,0.5c-0.4,1.8-0.7,3.6-0.8,5.5c-0.2-0.2-0.4-0.4-0.7-0.6
		c-1.9-1.7-4.7-1.5-4.9-1.5c-0.6,0-1,0.5-1,1.1c0,0.1,0.2,2.9,2.2,4.6c1.4,1.2,2.8,1.8,3.9,1.8c0.2,0,0.5,0,0.7-0.1
		c0.3,1.9,0.8,3.8,1.4,5.6c-0.4-0.2-0.7-0.3-1.1-0.4c-2.7-0.9-5.5,0.5-5.6,0.5c-0.5,0.3-0.7,0.9-0.5,1.4c0.1,0.1,1.5,2.9,4.2,3.8
		c1,0.3,2.1,0.5,3,0.5c0.9,0,1.7-0.2,2.3-0.5c0.1-0.1,0.2-0.1,0.3-0.2c1.1,1.8,2.5,3.6,4,5.1c-0.5,0-0.9,0-1.5,0.1
		c-3,0.4-5.1,3-5.2,3.1c-0.4,0.5-0.3,1.1,0.2,1.5c0.1,0.1,2.3,1.8,5,1.8c0.3,0,0.5,0,0.8,0c1.4-0.2,2.7-0.6,3.7-1.2
		c0.8-0.5,1.3-1.1,1.5-1.5c1.2,0.8,2.4,1.5,3.7,2.1v2.1c0,1.7,1.4,3.2,3.2,3.2h18.9c1.7,0,3.2-1.4,3.2-3.2v-2c1.4-0.6,2.7-1.4,4-2.2
		c0.2,0.5,0.7,1,1.5,1.5c1,0.6,2.3,1,3.7,1.2c0.3,0,0.5,0,0.8,0c2.7,0,4.9-1.7,5-1.8c0.5-0.4,0.5-1,0.2-1.5C63.1,57.6,61,55,58,54.6
		c-0.5-0.1-1-0.1-1.5-0.1c1.5-1.5,2.9-3.3,4-5.1c0.1,0.1,0.2,0.2,0.3,0.2c0.6,0.3,1.4,0.5,2.3,0.5c0.9,0,1.9-0.2,3-0.5
		c2.7-0.9,4.1-3.7,4.2-3.8c0.3-0.5,0-1.1-0.5-1.4c-0.1-0.1-2.9-1.4-5.6-0.5c-0.4,0.1-0.8,0.3-1.1,0.4c0.7-1.8,1.1-3.6,1.4-5.6
		C64.6,38.8,64.8,38.8,65.1,38.8z M64.5,23c0.4-0.7,1-1.3,1.6-1.6c0.1,0.7,0,1.5-0.4,2.2c-0.7,1.4-1.5,2-1.9,2.2
		C63.7,25.4,63.8,24.4,64.5,23z M58.5,26.6c-0.8-0.3-1.4-0.8-1.8-1.4c0.7-0.1,1.5-0.2,2.3,0c1.5,0.5,2.2,1.2,2.4,1.6
		C61,27,60,27.1,58.5,26.6z M57,44.3c-0.5-0.9-0.5-2-0.4-2.9c0.7,0.4,1.6,1.1,2.1,2c0.9,1.8,0.9,3.1,0.7,3.4
		C59,46.8,57.9,46.1,57,44.3z M19.2,48.4c0.5,0.8,1.1,1.9,1.1,3.1c0,2.2-0.8,3.6-1.2,3.7c-0.3-0.1-1.1-1.5-1-3.7
		C18.1,50.3,18.7,49.1,19.2,48.4z M12.4,43.4c0.5-0.9,1.4-1.6,2.1-2c0.1,0.8,0.1,1.9-0.4,2.9c-0.9,1.8-2,2.5-2.3,2.6
		C11.5,46.5,11.4,45.2,12.4,43.4z M12,25.3c0.8-0.3,1.6-0.2,2.3,0c-0.4,0.5-1,1.1-1.8,1.4C11,27.1,10,27,9.6,26.9
		C9.8,26.5,10.6,25.8,12,25.3z M9.1,47.8c-0.4,0.2-1.7,0.4-3.4-0.2c-1-0.3-1.8-1.1-2.3-1.8c0.8-0.2,1.9-0.4,2.9,0
		C8.1,46.5,9,47.5,9.1,47.8C9.1,47.8,9.1,47.8,9.1,47.8z M10.2,34.4c0.6-0.5,1.4-0.8,2.1-0.9c-0.2,0.6-0.6,1.4-1.2,1.9
		c-1.2,1-2.2,1.3-2.5,1.3C8.7,36.4,9.1,35.5,10.2,34.4z M17.2,17.5c0.8,0,1.6,0.4,2.1,0.8c-0.6,0.3-1.4,0.6-2.2,0.6
		c-1.5-0.1-2.5-0.6-2.7-0.8C14.6,17.8,15.6,17.4,17.2,17.5z M12,11.2c0.4,0.5,0.8,1.3,0.9,2.1c0.1,1.5-0.2,2.5-0.5,2.8
		c-0.3-0.3-0.8-1.2-0.9-2.7C11.5,12.6,11.7,11.8,12,11.2z M3.4,35.5c-0.6-0.5-1-1.3-1.2-1.9c0.7,0.1,1.5,0.3,2.1,0.9
		c1.2,1,1.6,2,1.6,2.3C5.6,36.8,4.5,36.5,3.4,35.5z M13.6,58.9c-1.2,0.2-2.4-0.3-3.2-0.7c0.7-0.6,1.7-1.3,2.9-1.5
		c2.2-0.3,3.7,0.3,3.8,0.6C17.1,57.6,15.8,58.6,13.6,58.9z M64.8,45.8c1-0.3,2.1-0.2,2.9,0c-0.5,0.6-1.3,1.4-2.3,1.8
		c-1.8,0.6-3.1,0.4-3.4,0.2c0,0,0,0,0,0C62,47.5,62.9,46.5,64.8,45.8z M66.7,34.4c0.6-0.5,1.4-0.8,2.1-0.9c-0.2,0.6-0.6,1.4-1.2,1.9
		c-1.2,1-2.2,1.3-2.6,1.3C65.1,36.4,65.5,35.4,66.7,34.4z M58.1,13.3c0.1-0.8,0.5-1.6,0.9-2.1c0.3,0.6,0.6,1.4,0.5,2.2
		c-0.1,1.5-0.7,2.5-0.9,2.7C58.3,15.8,57.9,14.9,58.1,13.3z M53.9,18.9c-0.8,0-1.6-0.3-2.2-0.6c0.6-0.4,1.3-0.8,2.1-0.8
		c1.5-0.1,2.5,0.3,2.8,0.5C56.4,18.3,55.5,18.8,53.9,18.9z M59.8,35.5c-0.6-0.5-1-1.3-1.2-1.9c0.7,0.1,1.5,0.4,2.1,0.9
		c1.2,1,1.6,2,1.6,2.4C62,36.8,61,36.5,59.8,35.5z M51.8,48.4c0.5,0.7,1.1,1.9,1.1,3.1c0,2.2-0.7,3.6-1,3.7
		c-0.3-0.1-1.1-1.5-1.2-3.7C50.7,50.3,51.3,49.2,51.8,48.4z M57.7,56.7c1.2,0.2,2.3,0.9,2.9,1.5c-0.8,0.4-2,0.9-3.2,0.7
		c-2.2-0.3-3.5-1.2-3.6-1.6C54,57,55.5,56.4,57.7,56.7z"/>
</g>
</svg>
