<?xml version="1.0" encoding="utf-8"?>
<!-- Generator: Adobe Illustrator 24.1.0, SVG Export Plug-In . SVG Version: 6.00 Build 0)  -->
<svg version="1.1" id="Capa_1" xmlns="http://www.w3.org/2000/svg" xmlns:xlink="http://www.w3.org/1999/xlink" x="0px" y="0px"
	 viewBox="0 0 71 74" style="enable-background:new 0 0 71 74;" xml:space="preserve">
<style type="text/css">
	.st0{fill:#62637C;}
	.st1{fill:#FF6612;}
	.st2{clip-path:url(#SVGID_2_);fill:#62637C;stroke:#62637C;stroke-miterlimit:10;}
	.st3{clip-path:url(#SVGID_2_);fill:#62637C;}
	.st4{clip-path:url(#SVGID_2_);fill:#FF6612;}
</style>
<path class="st0" d="M33.9,19.4l-4.1,5l4.6,3.4l1.8-7.2L33.9,19.4z"/>
<circle class="st1" cx="11.5" cy="41.6" r="4.6"/>
<path class="st0" d="M25.6,19.4l4.1,5l-4.6,3.4l-1.8-7.2L25.6,19.4z"/>
<path class="st0" d="M67.6,51.9h-6.3c-0.3,0-0.6-0.3-0.6-0.6c0-0.1,0-0.2,0.1-0.3c2.1-2.9,3.3-6.4,3.3-10v-0.6
	c0-3.2-2.6-5.7-5.7-5.7c-1.3,0-2.3,1-2.3,2.3v2c0,2.9-1.1,5.5-3.1,7.5c-0.7,0.7-1.4,1.2-2.3,1.7l-6.4,3.6h-3.1v-2.3H20.6
	c1.4-1.9,2.3-4.3,2.3-6.9c0-6.3-5.1-11.5-11.5-11.5S0,36.4,0,42.7s5.1,11.5,11.5,11.5c1.6,0,3.2-0.3,4.6-1v19.3h25.2v-2.3h3.2
	l5.7,2.3h17.4c1.9,0,3.4-1.5,3.4-3.4c0-0.9-0.3-1.7-0.9-2.3c0.5-0.6,0.9-1.4,0.9-2.3c0-0.9-0.3-1.7-0.9-2.3c0.5-0.6,0.9-1.4,0.9-2.3
	s-0.3-1.7-0.9-2.3c0.5-0.6,0.9-1.4,0.9-2.3C71,53.4,69.5,51.9,67.6,51.9L67.6,51.9z M2.3,42.7c0-5.1,4.1-9.2,9.2-9.2
	s9.2,4.1,9.2,9.2c0,2.2-0.8,4.2-2,5.7c-0.9-1.1-2.1-2-3.4-2.6c1.2-1.1,1.9-2.6,1.9-4.3c0-3.2-2.6-5.7-5.7-5.7s-5.7,2.6-5.7,5.7
	c0,1.7,0.8,3.2,1.9,4.3c-1.3,0.6-2.4,1.5-3.4,2.6C3.1,46.9,2.3,44.9,2.3,42.7z M8,41.6c0-1.9,1.5-3.4,3.4-3.4s3.4,1.5,3.4,3.4
	S13.3,45,11.5,45S8,43.5,8,41.6z M6,50c1.3-1.7,3.3-2.7,5.5-2.7s4.2,1,5.5,2.7c-1.5,1.2-3.4,1.8-5.5,1.8S7.5,51.2,6,50z M18.3,51.9
	h16v18.3h-16V51.9z M38.9,70.2h-2.3V51.9h2.3V70.2z M67.6,70.2h-17l-5.7-2.3h-3.7V54.2H45l6.9-3.9c1-0.6,1.9-1.3,2.7-2.1
	c2.4-2.4,3.8-5.7,3.8-9.2v-2c1.9,0,3.4,1.5,3.4,3.4V41c0,3.1-1,6.1-2.9,8.6c-0.4,0.5-0.6,1.1-0.6,1.7c0,1.6,1.3,2.9,2.9,2.9h6.3
	c0.6,0,1.1,0.5,1.1,1.1s-0.5,1.1-1.1,1.1h-5.7v2.3h5.7c0.6,0,1.1,0.5,1.1,1.1S68.2,61,67.6,61h-5.7v2.3h5.7c0.6,0,1.1,0.5,1.1,1.1
	s-0.5,1.1-1.1,1.1h-5.7v2.3h5.7c0.6,0,1.1,0.5,1.1,1.1C68.7,69.7,68.2,70.2,67.6,70.2z"/>
<circle class="st1" cx="29.8" cy="12.8" r="5.4"/>
<circle class="st1" cx="59.7" cy="20" r="4.6"/>
<path class="st0" d="M59.5,32.4C65.9,32.4,71,27.3,71,21S65.9,9.5,59.5,9.5S48.1,14.7,48.1,21S53.2,32.4,59.5,32.4z M54.1,28.3
	c1.3-1.7,3.3-2.7,5.5-2.7c2.2,0,4.2,1,5.5,2.7c-1.5,1.2-3.4,1.8-5.5,1.8C57.5,30.1,55.6,29.4,54.1,28.3z M56.1,19.8
	c0-1.9,1.5-3.4,3.4-3.4s3.4,1.5,3.4,3.4s-1.5,3.4-3.4,3.4S56.1,21.7,56.1,19.8z M59.5,11.8c5.1,0,9.2,4.1,9.2,9.2
	c0,2.2-0.8,4.2-2,5.7c-0.9-1.1-2.1-2-3.4-2.6c1.2-1.1,1.9-2.6,1.9-4.3c0-3.2-2.6-5.7-5.7-5.7c-3.2,0-5.7,2.6-5.7,5.7
	c0,1.7,0.8,3.2,1.9,4.3c-1.3,0.6-2.4,1.5-3.4,2.6c-1.3-1.6-2-3.6-2-5.7C50.4,15.9,54.5,11.8,59.5,11.8z"/>
<path class="st0" d="M29.8,33.6c8.8,0,16-7.2,16-16s-7.2-16-16-16s-16,7.2-16,16S20.9,33.6,29.8,33.6z M29.8,31.3
	c-3.9,0-7.3-1.6-9.8-4.2c1.3-4.3,5.3-7.3,9.8-7.3s8.5,3,9.8,7.3C37.1,29.7,33.6,31.3,29.8,31.3z M25.2,13c0-2.5,2.1-4.6,4.6-4.6
	s4.6,2.1,4.6,4.6s-2.1,4.6-4.6,4.6S25.2,15.5,25.2,13z M29.8,3.8c7.6,0,13.7,6.2,13.7,13.7c0,2.8-0.8,5.3-2.2,7.5
	c-1.4-3.2-4-5.6-7.2-6.7c1.6-1.3,2.6-3.2,2.6-5.3c0-3.8-3.1-6.9-6.9-6.9s-6.9,3.1-6.9,6.9c0,2.2,1,4.1,2.6,5.3
	c-3.2,1.2-5.8,3.6-7.2,6.7c-1.4-2.2-2.2-4.7-2.2-7.5C16,10,22.2,3.8,29.8,3.8L29.8,3.8z"/>
<path class="st0" d="M25.2,35.9h2.3v2.3h-2.3V35.9z"/>
<g>
	<path class="st0" d="M29.8,35.9h18.3v2.3H29.8V35.9z"/>
	<path class="st0" d="M25.2,40.4h22.9v2.3H25.2V40.4z"/>
	<path class="st0" d="M25.2,45h20.6v2.3H25.2V45z"/>
</g>
<path class="st0" d="M20.6,65.6h2.3v2.3h-2.3V65.6z"/>
<path class="st0" d="M25.2,65.6h2.3v2.3h-2.3V65.6z"/>
<path class="st0" d="M29.8,65.6h2.3v2.3h-2.3V65.6z"/>
</svg>
